<svg xmlns="http://www.w3.org/2000/svg" width="512" height="512" viewBox="0 0 512 512">
  <defs>
    <radialGradient id="saturnGradient" cx="50%" cy="50%" r="50%">
      <stop offset="0%" style="stop-color:#f4e6c2;stop-opacity:1" />
      <stop offset="100%" style="stop-color:#d2b48c;stop-opacity:1" />
    </radialGradient>
    <pattern id="saturnBands" x="0" y="0" width="512" height="512" patternUnits="userSpaceOnUse">
      <rect x="0" y="116" width="512" height="20" fill="#cd853f" opacity="0.4" />
      <rect x="0" y="156" width="512" height="15" fill="#8b4513" opacity="0.3" />
      <rect x="0" y="196" width="512" height="25" fill="#cd853f" opacity="0.5" />
      <rect x="0" y="246" width="512" height="20" fill="#8b4513" opacity="0.3" />
      <rect x="0" y="291" width="512" height="25" fill="#cd853f" opacity="0.4" />
      <rect x="0" y="336" width="512" height="15" fill="#8b4513" opacity="0.3" />
      <rect x="0" y="376" width="512" height="20" fill="#cd853f" opacity="0.5" />
    </pattern>
    <linearGradient id="ringGradient" x1="0%" y1="50%" x2="100%" y2="50%">
      <stop offset="0%" style="stop-color:#d2b48c;stop-opacity:0.1" />
      <stop offset="20%" style="stop-color:#d2b48c;stop-opacity:0.7" />
      <stop offset="30%" style="stop-color:#d2b48c;stop-opacity:0.2" />
      <stop offset="40%" style="stop-color:#d2b48c;stop-opacity:0.6" />
      <stop offset="50%" style="stop-color:#d2b48c;stop-opacity:0.3" />
      <stop offset="60%" style="stop-color:#d2b48c;stop-opacity:0.7" />
      <stop offset="70%" style="stop-color:#d2b48c;stop-opacity:0.2" />
      <stop offset="80%" style="stop-color:#d2b48c;stop-opacity:0.5" />
      <stop offset="100%" style="stop-color:#d2b48c;stop-opacity:0.1" />
    </linearGradient>
  </defs>
  <!-- Planet body -->
  <circle cx="256" cy="256" r="150" fill="url(#saturnGradient)" />
  <circle cx="256" cy="256" r="150" fill="url(#saturnBands)" />
  
  <!-- Rings -->
  <ellipse cx="256" cy="256" rx="300" ry="40" fill="url(#ringGradient)" transform="rotate(15, 256, 256)" />
  
  <!-- Ring shadow on planet -->
  <path d="M256,106 Q356,246 256,406" fill="none" stroke="#000" stroke-width="5" opacity="0.2" transform="rotate(15, 256, 256)" />
</svg>